<svg xmlns="http://www.w3.org/2000/svg" xmlns:xlink="http://www.w3.org/1999/xlink" version="1.1" id="Your_Icon" x="0px" y="0px" width="100px" height="100px" viewBox="0 0 100 100" enable-background="new 0 0 100 100" xml:space="preserve">
<g>
	<polygon fill="#000000" points="54.858,70.501 72.154,70.501 72.154,63.667 61.692,63.667  "/>
	<polygon fill="#000000" points="41.195,84.165 72.154,84.165 72.154,77.333 48.027,77.333  "/>
	<polygon fill="#000000" points="57.939,36.335 31.396,36.335 31.396,43.167 51.107,43.167  "/>
	<polygon fill="#000000" points="31.396,53.053 35.176,56.832 37.442,56.832 44.275,50 31.396,50  "/>
	<polygon fill="#000000" points="72.154,53.205 68.527,56.832 72.154,56.832  "/>
	<polygon fill="#000000" points="71.606,22.669 31.396,22.669 31.396,29.502 64.772,29.502  "/>
	<polygon fill="#000000" points="21.485,43.142 24.314,45.971 24.443,46.1 24.443,9.003 79.107,9.003 79.107,15.168 79.233,15.042    82.062,12.213 84.892,15.044 85.939,16.093 85.939,2.17 17.609,2.17 17.609,47.021 18.657,45.972  "/>
	<polygon fill="#000000" points="79.107,90.998 24.443,90.998 24.443,77.178 17.609,70.342 17.609,97.831 85.939,97.831    85.939,39.42 79.107,46.252  "/>
	<polygon fill="#000000" points="85.939,21.752 82.062,17.871 79.107,20.825 72.154,27.778 70.43,29.502 63.597,36.335    56.765,43.167 49.932,50 43.1,56.832 36.309,63.622 24.443,51.757 21.486,48.8 17.609,52.679 11.609,58.682 17.609,64.684    24.443,71.52 31.396,78.475 36.312,83.392 42.37,77.333 46.195,73.508 49.202,70.501 56.036,63.667 62.871,56.832 69.703,50    79.107,40.595 85.939,33.763 91.942,27.76  "/>
</g>
</svg>